<svg xmlns="http://www.w3.org/2000/svg" width="1440" height="1000" viewBox="0 0 1440 1000" role="img" aria-labelledby="title desc">
  <title id="title">Prévia visual do portfólio black dark</title>
  <desc id="desc">Mockup do front completo com hero, métricas, cards de projeto e seção de contato em tema preto moderno.</desc>
  <defs>
    <linearGradient id="bg" x1="0" x2="1" y1="0" y2="1"><stop stop-color="#020408"/><stop offset="1" stop-color="#101827"/></linearGradient>
    <linearGradient id="accent" x1="0" x2="1"><stop stop-color="#54f0ff"/><stop offset=".55" stop-color="#9b5cff"/><stop offset="1" stop-color="#ff4fd8"/></linearGradient>
    <filter id="blur"><feGaussianBlur stdDeviation="55"/></filter>
  </defs>
  <rect width="1440" height="1000" fill="url(#bg)"/>
  <circle cx="250" cy="120" r="220" fill="#54f0ff" opacity=".18" filter="url(#blur)"/>
  <circle cx="1160" cy="110" r="240" fill="#9b5cff" opacity=".2" filter="url(#blur)"/>
  <g fill="none" stroke="#fff" stroke-opacity=".06"><path d="M0 120h1440M0 240h1440M0 360h1440M0 480h1440M0 600h1440M0 720h1440M0 840h1440"/><path d="M120 0v1000M240 0v1000M360 0v1000M480 0v1000M600 0v1000M720 0v1000M840 0v1000M960 0v1000M1080 0v1000M1200 0v1000M1320 0v1000"/></g>
  <text x="92" y="78" fill="#f8fbff" font-family="Inter, Arial" font-size="28" font-weight="900">Portifólio<tspan fill="#54f0ff">.</tspan></text>
  <text x="760" y="78" fill="#aab4c8" font-family="Inter, Arial" font-size="18" font-weight="700">Sobre  Projetos  Processo  Contato</text>
  <rect x="1180" y="46" width="170" height="46" rx="23" fill="#fff" opacity=".07" stroke="#fff" stroke-opacity=".14"/>
  <text x="1210" y="76" fill="#f8fbff" font-family="Inter, Arial" font-size="15" font-weight="800">Iniciar conversa</text>
  <text x="92" y="205" fill="#54f0ff" font-family="Inter, Arial" font-size="16" font-weight="900" letter-spacing="3">UX ESTRATÉGICO • BLACK DARK</text>
  <text x="92" y="305" fill="#f8fbff" font-family="Inter, Arial" font-size="82" font-weight="900">Portfólio digital</text>
  <text x="92" y="398" fill="#f8fbff" font-family="Inter, Arial" font-size="82" font-weight="900">premium e memorável.</text>
  <text x="96" y="455" fill="#aab4c8" font-family="Inter, Arial" font-size="25">Front completo para cases, competências e resultados.</text>
  <rect x="96" y="500" width="145" height="54" rx="27" fill="url(#accent)"/><text x="127" y="535" fill="#020408" font-family="Inter, Arial" font-size="17" font-weight="900">Ver cases</text>
  <rect x="256" y="500" width="180" height="54" rx="27" fill="#fff" opacity=".07" stroke="#fff" stroke-opacity=".16"/><text x="286" y="535" fill="#f8fbff" font-family="Inter, Arial" font-size="17" font-weight="900">Conhecer método</text>
  <rect x="990" y="176" width="350" height="410" rx="34" fill="#fff" opacity=".07" stroke="#fff" stroke-opacity=".14"/>
  <text x="1022" y="407" fill="#f8fbff" font-family="Inter, Arial" font-size="84" font-weight="900">+42%</text>
  <text x="1028" y="458" fill="#aab4c8" font-family="Inter, Arial" font-size="20">clareza para decisões executivas.</text>
  <rect x="95" y="660" width="280" height="112" rx="26" fill="#fff" opacity=".07" stroke="#fff" stroke-opacity=".14"/><text x="126" y="720" fill="#f8fbff" font-family="Inter, Arial" font-size="38" font-weight="900">12+</text><text x="126" y="752" fill="#aab4c8" font-family="Inter, Arial" font-size="18">projetos estratégicos</text>
  <rect x="405" y="660" width="280" height="112" rx="26" fill="#fff" opacity=".07" stroke="#fff" stroke-opacity=".14"/><text x="436" y="720" fill="#f8fbff" font-family="Inter, Arial" font-size="38" font-weight="900">24h</text><text x="436" y="752" fill="#aab4c8" font-family="Inter, Arial" font-size="18">economizadas por mês</text>
  <rect x="715" y="660" width="280" height="112" rx="26" fill="#fff" opacity=".07" stroke="#fff" stroke-opacity=".14"/><text x="746" y="720" fill="#f8fbff" font-family="Inter, Arial" font-size="38" font-weight="900">35%</text><text x="746" y="752" fill="#aab4c8" font-family="Inter, Arial" font-size="18">menos retrabalho</text>
  <rect x="1025" y="660" width="280" height="112" rx="26" fill="#fff" opacity=".07" stroke="#fff" stroke-opacity=".14"/><text x="1056" y="720" fill="#f8fbff" font-family="Inter, Arial" font-size="38" font-weight="900">100%</text><text x="1056" y="752" fill="#aab4c8" font-family="Inter, Arial" font-size="18">layout responsivo</text>
  <text x="96" y="874" fill="#54f0ff" font-family="Inter, Arial" font-size="16" font-weight="900" letter-spacing="3">PROJETOS EM DESTAQUE</text>
  <text x="96" y="932" fill="#f8fbff" font-family="Inter, Arial" font-size="50" font-weight="900">Cards de cases com impacto e estilo.</text>
</svg>
